<?xml version="1.0" standalone="no"?>
<svg xmlns="http://www.w3.org/2000/svg" width="24" height="24"><rect width="24" height="24" opacity="0"></rect><g mask="url(#hms_mask_0)"><path d="M6 1.01Q4.75 1.01 3.88 1.88Q3 2.76 3 4.01L3 19.99Q3 21.24 3.88 22.12Q4.75 22.99 6 22.99L18 22.99Q18.82 22.99 19.5 22.58Q20.18 22.18 20.59 21.49Q21 20.81 21 19.99L21 4.01Q21 2.76 20.12 1.88Q19.25 1.01 18 1.01L6 1.01Z" fill="rgba(167,196,181,1)"></path></g><defs><mask id="hms_mask_0"><rect width="24" height="24" fill="#ffffff"></rect><g><path d="M7.42 7.75Q7.1 7.75 6.89 7.52Q6.67 7.3 6.67 7.01Q6.67 6.7 6.89 6.47Q7.1 6.24 7.42 6.24L16.73 6.24Q17.04 6.24 17.27 6.47Q17.5 6.7 17.5 7.01Q17.5 7.3 17.27 7.52Q17.04 7.75 16.73 7.75L7.42 7.75ZM7.42 12.74Q7.1 12.74 6.89 12.53Q6.67 12.31 6.67 12Q6.67 11.69 6.89 11.47Q7.1 11.26 7.42 11.26L12.07 11.26Q12.38 11.26 12.6 11.47Q12.82 11.69 12.82 12Q12.82 12.31 12.6 12.53Q12.38 12.74 12.07 12.74L7.42 12.74ZM13.2 17.86Q13.13 17.9 13.03 17.98Q12.79 18.14 12.72 18.19L11.04 19.13Q10.92 19.2 10.8 19.15Q10.68 19.1 10.63 19Q10.58 18.89 10.63 18.77L11.59 17.09Q11.78 16.78 11.93 16.58L13.2 17.86ZM12.36 16.03Q12.5 15.86 12.62 15.72L18 10.37Q18.26 10.06 18.7 10.06Q19.13 10.06 19.42 10.37Q19.73 10.66 19.73 11.08Q19.73 11.5 19.42 11.81L14.06 17.16Q13.92 17.28 13.78 17.42L12.36 16.03Z" fill="#000000"></path></g></mask></defs></svg>