<?xml version="1.0" standalone="no"?>
<svg xmlns="http://www.w3.org/2000/svg" width="24" height="24"><rect width="24" height="24" opacity="0"></rect><g mask="url(#hms_mask_0)"><path d="M6.17 2.59Q5.16 2.59 4.3 3.11Q3.43 3.62 2.93 4.49Q2.42 5.35 2.42 6.36L2.42 17.83Q2.42 18.86 2.93 19.73Q3.43 20.59 4.3 21.1Q5.16 21.6 6.17 21.6L17.66 21.6Q18.67 21.6 19.55 21.1Q20.42 20.59 20.93 19.73Q21.43 18.86 21.43 17.83L21.43 6.36Q21.43 5.33 20.93 4.46Q20.42 3.6 19.55 3.1Q18.67 2.59 17.66 2.59L6.17 2.59Z" fill="rgba(167,196,181,1)"></path></g><defs><mask id="hms_mask_0"><rect width="24" height="24" fill="#ffffff"></rect><g><path d="M23.3 0.65Q22.99 0.34 22.58 0.17Q22.18 0 21.7 0Q21.24 0 20.83 0.17Q20.42 0.34 20.11 0.65L10.54 10.22Q10.32 10.44 10.2 10.66L8.83 13.08Q8.64 13.46 8.64 13.86Q8.64 14.26 8.86 14.57Q9.05 14.9 9.4 15.11Q9.74 15.31 10.13 15.31Q10.49 15.31 10.82 15.12L13.27 13.73Q13.49 13.63 13.73 13.39L23.3 3.84Q23.98 3.17 23.98 2.24Q23.98 1.32 23.3 0.65Z" fill="#000000"></path></g></mask></defs><g><path d="M9.86 13.68Q9.79 13.8 9.84 13.93Q9.89 14.06 10.02 14.11Q10.15 14.16 10.27 14.11L12.05 13.08Q12.24 12.96 12.41 12.86L12.58 12.74L11.23 11.38L11.06 11.59Q10.99 11.69 10.97 11.75Q10.94 11.81 10.87 11.9L9.86 13.68ZM22.49 1.49Q22.18 1.18 21.73 1.18Q21.29 1.18 20.95 1.49L11.95 10.49L11.86 10.58Q11.78 10.68 11.69 10.8L13.18 12.26L13.49 12L22.49 3Q22.8 2.69 22.8 2.24Q22.8 1.8 22.49 1.49Z" fill="rgba(167,196,181,1)"></path></g></svg>